<?xml version="1.0" encoding="UTF-8" standalone="no"?>
<!-- Created with Inkscape (http://www.inkscape.org/) -->

<svg
   xmlns:osb="http://www.openswatchbook.org/uri/2009/osb"
   xmlns:dc="http://purl.org/dc/elements/1.1/"
   xmlns:cc="http://creativecommons.org/ns#"
   xmlns:rdf="http://www.w3.org/1999/02/22-rdf-syntax-ns#"
   xmlns:svg="http://www.w3.org/2000/svg"
   xmlns="http://www.w3.org/2000/svg"
   xmlns:sodipodi="http://sodipodi.sourceforge.net/DTD/sodipodi-0.dtd"
   xmlns:inkscape="http://www.inkscape.org/namespaces/inkscape"
   width="650"
   height="200"
   viewBox="0 0 171.97916 52.916673"
   version="1.1"
   id="svg8"
   inkscape:version="0.92.4 (5da689c313, 2019-01-14)"
   sodipodi:docname="logo1.svg"
   inkscape:export-filename="C:\Users\Iron\Desktop\JPEGapp\rysunek.png"
   inkscape:export-xdpi="96"
   inkscape:export-ydpi="96">
  <defs
     id="defs2">
    <linearGradient
       id="linearGradient8799"
       osb:paint="solid">
      <stop
         style="stop-color:#21a467;stop-opacity:1;"
         offset="0"
         id="stop8797" />
    </linearGradient>
  </defs>
  <sodipodi:namedview
     id="base"
     pagecolor="#ffffff"
     bordercolor="#666666"
     borderopacity="1.0"
     inkscape:pageopacity="0.0"
     inkscape:pageshadow="2"
     inkscape:zoom="0.99999999"
     inkscape:cx="477.81882"
     inkscape:cy="-3.1248225"
     inkscape:document-units="mm"
     inkscape:current-layer="layer1"
     showgrid="false"
     units="px"
     inkscape:window-width="1366"
     inkscape:window-height="705"
     inkscape:window-x="-8"
     inkscape:window-y="-8"
     inkscape:window-maximized="1"
     showguides="false" />
  <metadata
     id="metadata5">
    <rdf:RDF>
      <cc:Work
         rdf:about="">
        <dc:format>image/svg+xml</dc:format>
        <dc:type
           rdf:resource="http://purl.org/dc/dcmitype/StillImage" />
        <dc:title></dc:title>
      </cc:Work>
    </rdf:RDF>
  </metadata>
  <g
     inkscape:label="Layer 1"
     inkscape:groupmode="layer"
     id="layer1"
     transform="translate(0,-244.08323)"
     style="display:inline">
    <rect
       style="opacity:1;fill:#000000;fill-opacity:1;stroke:none;stroke-width:2.28580332;stroke-miterlimit:4;stroke-dasharray:none;stroke-dashoffset:13.48838234;stroke-opacity:1"
       id="rect8819"
       width="171.97784"
       height="52.917206"
       x="0.055169523"
       y="244.13072"
       ry="0" />
    <flowRoot
       xml:space="preserve"
       id="flowRoot6476"
       style="font-style:normal;font-variant:normal;font-weight:normal;font-stretch:normal;font-size:256px;line-height:1.25;font-family:'league spartan';-inkscape-font-specification:'league spartan';letter-spacing:0px;word-spacing:0px;fill:#000000;fill-opacity:1;stroke:none"
       transform="matrix(0.26458333,0,0,0.26458333,-8.8059902,365.68449)"><flowRegion
         id="flowRegion6478"
         style="font-size:256px"><rect
           id="rect6480"
           width="1513.4771"
           height="304.79745"
           x="0"
           y="-0.34190026"
           style="font-size:256px" /></flowRegion><flowPara
         id="flowPara6482" /></flowRoot>    <flowRoot
       xml:space="preserve"
       id="flowRoot6484"
       style="font-style:normal;font-variant:normal;font-weight:normal;font-stretch:normal;font-size:40px;line-height:1.25;font-family:'league spartan';-inkscape-font-specification:'league spartan';letter-spacing:0px;word-spacing:0px;fill:#000000;fill-opacity:1;stroke:none"
       transform="matrix(0.26458333,0,0,0.26458333,-8.8059902,365.68449)"><flowRegion
         id="flowRegion6486"><rect
           id="rect6488"
           width="353.84534"
           height="173.41928"
           x="0"
           y="-173.76117" /></flowRegion><flowPara
         id="flowPara6490" /></flowRoot>    <path
       style="fill:#00ff00;stroke:#ffcc00;stroke-width:0.46347314"
       d=""
       id="path6582"
       inkscape:connector-curvature="0" />
    <flowRoot
       xml:space="preserve"
       id="flowRoot6898"
       style="font-style:normal;font-variant:normal;font-weight:normal;font-stretch:normal;font-size:64px;line-height:1.25;font-family:'league spartan';-inkscape-font-specification:'league spartan';letter-spacing:0px;word-spacing:0px;fill:#000000;fill-opacity:1;stroke:none"
       transform="matrix(0.26458333,0,0,0.26458333,0,204.39582)"><flowRegion
         id="flowRegion6900"><rect
           id="rect6902"
           width="28.027353"
           height="378.36926"
           x="606.09155"
           y="568.96368" /></flowRegion><flowPara
         id="flowPara6904" /></flowRoot>    <g
       id="g7334" />
    <flowRoot
       xml:space="preserve"
       id="flowRoot8834"
       style="font-style:normal;font-variant:normal;font-weight:normal;font-stretch:normal;font-size:64px;line-height:1.25;font-family:'league spartan';-inkscape-font-specification:'league spartan';letter-spacing:0px;word-spacing:0px;fill:#000000;fill-opacity:1;stroke:none"
       transform="matrix(0.26458333,0,0,0.26458333,0,204.39582)"><flowRegion
         id="flowRegion8836"><rect
           id="rect8838"
           width="950.37817"
           height="111.13359"
           x="181.74406"
           y="216.57079" /></flowRegion><flowPara
         id="flowPara8840" /></flowRoot>    <text
       xml:space="preserve"
       style="font-style:normal;font-variant:normal;font-weight:normal;font-stretch:normal;font-size:16.93333244px;line-height:1.25;font-family:'league spartan';-inkscape-font-specification:'league spartan';letter-spacing:0px;word-spacing:0px;fill:#000000;fill-opacity:1;stroke:none;stroke-width:0.26458332"
       x="72.09951"
       y="291.10092"
       id="text8844"><tspan
         sodipodi:role="line"
         id="tspan8842"
         x="72.09951"
         y="305.9176"
         style="stroke-width:0.26458332" /></text>
    <flowRoot
       xml:space="preserve"
       id="flowRoot8846"
       style="font-style:normal;font-variant:normal;font-weight:normal;font-stretch:normal;font-size:64px;line-height:1.25;font-family:'league spartan';-inkscape-font-specification:'league spartan';letter-spacing:0px;word-spacing:0px;fill:#000000;fill-opacity:1;stroke:none"
       transform="matrix(0.26458333,0,0,0.26458333,0,204.39582)"><flowRegion
         id="flowRegion8848"><rect
           id="rect8850"
           width="1458.7919"
           height="161.36847"
           x="29.727497"
           y="55.202312" /></flowRegion><flowPara
         id="flowPara8852" /></flowRoot>    <flowRoot
       xml:space="preserve"
       id="flowRoot8854"
       style="font-style:normal;font-variant:normal;font-weight:normal;font-stretch:normal;font-size:64px;line-height:1.25;font-family:'league spartan';-inkscape-font-specification:'league spartan';letter-spacing:0px;word-spacing:0px;fill:#000000;fill-opacity:1;stroke:none"
       transform="matrix(0.26458333,0,0,0.26458333,0,204.39582)"><flowRegion
         id="flowRegion8856"><rect
           id="rect8858"
           width="1565.2391"
           height="296.56583"
           x="5.3636212"
           y="6.3656425" /></flowRegion><flowPara
         id="flowPara8860" /></flowRoot>    <a
       id="a8972"
       transform="matrix(1.2505989,-0.12492294,0.09431361,1.6989796,-43.110394,-259.23393)">
      <text
         xml:space="preserve"
         style="font-style:normal;font-variant:normal;font-weight:normal;font-stretch:normal;font-size:5.74163246px;line-height:1.25;font-family:'league spartan';-inkscape-font-specification:'league spartan';letter-spacing:0px;word-spacing:0px;fill:#000000;fill-opacity:1;stroke:none;stroke-width:0.17942601"
         x="30.778748"
         y="374.1572"
         id="text9012"
         transform="matrix(1.1521554,0.08471596,-0.06509441,0.86315218,0,0)"><tspan
           sodipodi:role="line"
           id="tspan9010"
           x="30.778748"
           y="374.1572"
           style="font-size:5.74163246px;letter-spacing:0.17942601px;word-spacing:1.07655597px;fill:#ffffff;stroke-width:0.17942601"
           dx="0">Aktywne taksówki w Twojej okolicy</tspan></text>
    </a>
    <g
       aria-label="onofftaxi.pl"
       transform="matrix(0.11555434,0,0,0.13698949,0.06253643,244.55935)"
       style="font-style:normal;font-variant:normal;font-weight:normal;font-stretch:normal;font-size:40px;line-height:1.25;font-family:'league spartan';-inkscape-font-specification:'league spartan';letter-spacing:0px;word-spacing:0px;fill:#ffcc00;fill-opacity:1;stroke:none"
       id="flowRoot6492">
      <path
         d="m 5.6733338,152.34488 c 0,38.97334 30.5866692,66.84667 76.2200062,66.84667 43.66,0 75.48001,-27.87333 75.48001,-66.84667 0,-39.46667 -33.54667,-67.093336 -75.48001,-67.093336 -42.673337,0 -76.2200062,27.626666 -76.2200062,67.093336 z m 46.3733372,0 c 0,-17.51333 13.073334,-29.84667 29.600002,-29.84667 16.280002,0 29.353337,12.33334 29.353337,29.84667 0,17.26667 -12.333335,29.6 -29.353337,29.6 -17.760001,0 -29.600002,-12.33333 -29.600002,-29.6 z"
         style="font-size:246.66668701px"
         id="path8872" />
      <path
         d="m 177.15678,215.49155 h 43.66001 v -71.53333 c 0,-12.58001 12.82666,-24.66667 25.9,-24.66667 14.06,0 22.69333,12.08666 22.69333,24.66667 v 71.53333 h 43.66001 v -83.37334 c 0,-35.273332 -32.31334,-46.866666 -55.50001,-46.866666 -13.81333,0 -26.39333,7.153333 -36.26,17.019996 h -0.49333 V 88.951544 h -43.66001 z"
         style="font-size:246.66668701px"
         id="path8874" />
      <path
         d="m 330.86868,152.34488 c 0,38.97334 30.58667,66.84667 76.22,66.84667 43.66001,0 75.48001,-27.87333 75.48001,-66.84667 0,-39.46667 -33.54667,-67.093336 -75.48001,-67.093336 -42.67333,0 -76.22,27.626666 -76.22,67.093336 z m 46.37333,0 c 0,-17.51333 13.07334,-29.84667 29.60001,-29.84667 16.28,0 29.35333,12.33334 29.35333,29.84667 0,17.26667 -12.33333,29.6 -29.35333,29.6 -17.76001,0 -29.60001,-12.33333 -29.60001,-29.6 z"
         style="font-size:246.66668701px"
         id="path8876" />
      <path
         d="m 508.78859,88.951544 h -18.25333 v 33.300006 h 18.25333 v 93.24 h 43.66001 v -93.24 h 29.10667 V 88.951544 H 552.4486 V 63.298208 c 0,-17.513334 2.46666,-24.913335 13.56667,-24.913335 7.15333,0 13.07333,3.453334 13.07333,3.453334 l 15.29333,-30.833336 c 0,0 -13.81333,-11.34666788 -36.01333,-11.34666788 -31.57334,0 -49.33334,25.40666888 -49.58001,62.40667188 z"
         style="font-size:246.66668701px"
         id="path8878" />
      <path
         d="m 599.84331,88.951544 h -18.25333 v 33.300006 h 18.25333 v 93.24 h 43.66001 v -93.24 h 29.10667 V 88.951544 H 643.50332 V 63.298208 c 0,-17.513334 2.46666,-24.913335 13.56666,-24.913335 7.15334,0 13.07334,3.453334 13.07334,3.453334 l 15.29333,-30.833336 c 0,0 -13.81333,-11.34666788 -36.01333,-11.34666788 -31.57334,0 -49.33334,25.40666888 -49.58001,62.40667188 z"
         style="font-size:246.66668701px"
         id="path8880" />
      <path
         d="m 692.34331,88.951544 h -18.25333 v 33.300006 h 18.25333 v 48.59333 c 0,22.44667 8.38667,48.34667 43.16667,48.34667 18.00667,0 32.06667,-7.89333 32.06667,-7.89333 l -10.85333,-35.27334 c 0,0 -5.18,3.94667 -10.85334,3.94667 -6.90666,0 -9.86666,-5.67333 -9.86666,-17.51333 v -40.20667 h 26.64 V 88.951544 h -26.64 V 41.838207 h -43.66001 z"
         style="font-size:246.66668701px"
         id="path8882" />
      <path
         d="m 772.65258,152.34488 c 0,37.00001 25.9,66.84667 62.90001,66.84667 17.26667,0 32.06667,-7.64666 41.44,-18.00666 h 0.49333 v 14.30666 h 43.16667 V 88.951544 h -43.66 v 12.086666 c -10.36,-10.113333 -24.42,-15.786666 -41.44,-15.786666 -37.00001,0 -62.90001,30.093336 -62.90001,67.093336 z m 46.37334,0 c 0,-17.51333 13.07333,-29.84667 29.6,-29.84667 16.28,0 29.35334,12.33334 29.35334,29.84667 0,17.26667 -12.33334,29.6 -29.35334,29.6 -17.76,0 -29.6,-12.33333 -29.6,-29.6 z"
         style="font-size:246.66668701px"
         id="path8884" />
      <path
         d="m 1096.9191,215.49155 -54.02,-66.10667 46.3733,-60.433336 h -51.06 l -21.9533,29.353336 -21.95337,-29.353336 h -51.06 l 46.37333,60.433336 -54.02,66.10667 h 52.78667 l 27.87337,-35.76667 27.8733,35.76667 z"
         style="font-size:246.66668701px"
         id="path8886" />
      <path
         d="m 1134.239,10.758204 c -14.3067,0 -25.9,11.593334 -25.9,25.900002 0,14.306668 11.5933,25.900002 25.9,25.900002 14.3066,0 25.9,-11.593334 25.9,-25.900002 0,-14.306668 -11.5934,-25.900002 -25.9,-25.900002 z m -22.4467,78.19334 h 43.66 V 215.49155 h -43.66 z"
         style="font-size:246.66668701px"
         id="path8888" />
      <path
         d="m 1214.5868,162.70488 c -15.54,0 -28.1201,12.58 -28.1201,28.36667 0,15.54 12.5801,28.12 28.1201,28.12 15.7866,0 28.3666,-12.58 28.3666,-28.12 0,-15.78667 -12.58,-28.36667 -28.3666,-28.36667 z"
         style="font-size:246.66668701px"
         id="path8890" />
      <path
         d="m 1420.7038,152.09822 c 0,-37.00001 -25.9,-66.846676 -62.9,-66.846676 -17.2667,0 -32.0667,7.646667 -41.44,18.006666 h -0.4933 V 88.951544 h -43.1667 V 279.62489 h 43.66 v -76.22 c 10.36,10.11333 24.42,15.78666 41.44,15.78666 37,0 62.9,-30.09333 62.9,-67.09333 z m -46.3733,0 c 0,17.51333 -13.0733,29.84666 -29.6,29.84666 -16.28,0 -29.3534,-12.33333 -29.3534,-29.84666 0,-17.26667 12.3334,-29.60001 29.3534,-29.60001 17.76,0 29.6,12.33334 29.6,29.60001 z"
         style="font-size:246.66668701px"
         id="path8892" />
      <path
         d="m 1441.3236,215.49155 h 43.66 V 3.3582034 h -43.66 z"
         style="font-size:246.66668701px"
         id="path8894" />
    </g>
    <flowRoot
       xml:space="preserve"
       id="flowRoot8956"
       style="fill:black;fill-opacity:1;stroke:none;font-family:'league spartan';font-style:normal;font-weight:normal;font-size:64px;line-height:1.25;letter-spacing:0px;word-spacing:0px;-inkscape-font-specification:'league spartan';font-stretch:normal;font-variant:normal"><flowRegion
         id="flowRegion8958"><rect
           id="rect8960"
           width="579"
           height="104"
           x="22"
           y="-179" /></flowRegion><flowPara
         id="flowPara8962" /></flowRoot>    <flowRoot
       xml:space="preserve"
       id="flowRoot8964"
       style="fill:black;fill-opacity:1;stroke:none;font-family:'league spartan';font-style:normal;font-weight:normal;font-size:64px;line-height:1.25;letter-spacing:0px;word-spacing:0px;-inkscape-font-specification:'league spartan';font-stretch:normal;font-variant:normal"><flowRegion
         id="flowRegion8966"><rect
           id="rect8968"
           width="694"
           height="129"
           x="-69"
           y="-171" /></flowRegion><flowPara
         id="flowPara8970" /></flowRoot>  </g>
</svg>
