<?xml version="1.0" encoding="UTF-8" standalone="no"?>
<!-- Created with Inkscape (http://www.inkscape.org/) -->

<svg
   xmlns:dc="http://purl.org/dc/elements/1.1/"
   xmlns:cc="http://creativecommons.org/ns#"
   xmlns:rdf="http://www.w3.org/1999/02/22-rdf-syntax-ns#"
   xmlns:svg="http://www.w3.org/2000/svg"
   xmlns="http://www.w3.org/2000/svg"
   xmlns:sodipodi="http://sodipodi.sourceforge.net/DTD/sodipodi-0.dtd"
   xmlns:inkscape="http://www.inkscape.org/namespaces/inkscape"
   width="1500"
   height="350"
   viewBox="0 0 396.87499 92.604169"
   version="1.1"
   id="svg8"
   inkscape:version="0.92.4 (5da689c313, 2019-01-14)"
   sodipodi:docname="logo.svg"
   inkscape:export-filename="C:\Users\Iron\Desktop\JPEGapp\rysunek.png"
   inkscape:export-xdpi="96"
   inkscape:export-ydpi="96">
  <defs
     id="defs2" />
  <sodipodi:namedview
     id="base"
     pagecolor="#ffffff"
     bordercolor="#666666"
     borderopacity="1.0"
     inkscape:pageopacity="0.0"
     inkscape:pageshadow="2"
     inkscape:zoom="0.57087087"
     inkscape:cx="803.25064"
     inkscape:cy="203.84794"
     inkscape:document-units="mm"
     inkscape:current-layer="layer1"
     showgrid="false"
     units="px"
     inkscape:window-width="1366"
     inkscape:window-height="705"
     inkscape:window-x="-8"
     inkscape:window-y="-8"
     inkscape:window-maximized="1" />
  <metadata
     id="metadata5">
    <rdf:RDF>
      <cc:Work
         rdf:about="">
        <dc:format>image/svg+xml</dc:format>
        <dc:type
           rdf:resource="http://purl.org/dc/dcmitype/StillImage" />
        <dc:title></dc:title>
      </cc:Work>
    </rdf:RDF>
  </metadata>
  <g
     inkscape:label="Layer 1"
     inkscape:groupmode="layer"
     id="layer1"
     transform="translate(0,-204.39582)">
    <flowRoot
       xml:space="preserve"
       id="flowRoot6476"
       style="font-style:normal;font-variant:normal;font-weight:normal;font-stretch:normal;font-size:256px;line-height:1.25;font-family:'league spartan';-inkscape-font-specification:'league spartan';letter-spacing:0px;word-spacing:0px;fill:#000000;fill-opacity:1;stroke:none"
       transform="matrix(0.26458333,0,0,0.26458333,-8.8059902,365.68449)"><flowRegion
         id="flowRegion6478"
         style="font-size:256px"><rect
           id="rect6480"
           width="1513.4771"
           height="304.79745"
           x="0"
           y="-0.34190026"
           style="font-size:256px" /></flowRegion><flowPara
         id="flowPara6482"></flowPara></flowRoot>    <flowRoot
       xml:space="preserve"
       id="flowRoot6484"
       style="font-style:normal;font-variant:normal;font-weight:normal;font-stretch:normal;font-size:40px;line-height:1.25;font-family:'league spartan';-inkscape-font-specification:'league spartan';letter-spacing:0px;word-spacing:0px;fill:#000000;fill-opacity:1;stroke:none"
       transform="matrix(0.26458333,0,0,0.26458333,-8.8059902,365.68449)"><flowRegion
         id="flowRegion6486"><rect
           id="rect6488"
           width="353.84534"
           height="173.41928"
           x="0"
           y="-173.76117" /></flowRegion><flowPara
         id="flowPara6490"></flowPara></flowRoot>    <flowRoot
       xml:space="preserve"
       id="flowRoot6492"
       style="font-style:normal;font-variant:normal;font-weight:normal;font-stretch:normal;font-size:40px;line-height:1.25;font-family:'league spartan';-inkscape-font-specification:'league spartan';letter-spacing:0px;word-spacing:0px;fill:#ffcc00;fill-opacity:1;stroke:none"
       transform="matrix(0.26458333,0,0,0.26458333,0.92694619,204.8593)"><flowRegion
         id="flowRegion6494"
         style="fill:#ffcc00"><rect
           id="rect6496"
           width="1523.9873"
           height="299.54236"
           x="0"
           y="-0.34190026"
           style="fill:#ffcc00" /></flowRegion><flowPara
         id="flowPara6498"
         style="font-size:246.66668701px">onofftaxi.pl</flowPara></flowRoot>    <path
       style="fill:#00ff00;stroke:#ffcc00;stroke-width:0.46347314"
       d=""
       id="path6582"
       inkscape:connector-curvature="0" />
    <flowRoot
       xml:space="preserve"
       id="flowRoot6696"
       style="font-style:normal;font-variant:normal;font-weight:normal;font-stretch:normal;font-size:40px;line-height:1.25;font-family:'league spartan';-inkscape-font-specification:'league spartan';letter-spacing:0px;word-spacing:0px;fill:#000000;fill-opacity:1;stroke:none;"
       transform="matrix(0.26458333,0,0,0.26458333,12.513775,206.71319)"><flowRegion
         id="flowRegion6698"
         style="fill:#000000;"><rect
           id="rect6700"
           width="1215.6864"
           height="91.088905"
           x="92.840607"
           y="262.41452"
           style="fill:#000000;" /></flowRegion><flowPara
         id="flowPara6702"
         style="font-size:64px;fill:#b3b3b3">Aktywne taksówki w Twojej okilicy</flowPara></flowRoot>    <flowRoot
       xml:space="preserve"
       id="flowRoot6898"
       style="fill:black;fill-opacity:1;stroke:none;font-family:'league spartan';font-style:normal;font-weight:normal;font-size:64px;line-height:1.25;letter-spacing:0px;word-spacing:0px;-inkscape-font-specification:'league spartan';font-stretch:normal;font-variant:normal"><flowRegion
         id="flowRegion6900"><rect
           id="rect6902"
           width="28.027353"
           height="378.36926"
           x="606.09155"
           y="568.96368" /></flowRegion><flowPara
         id="flowPara6904"></flowPara></flowRoot>    <path
       style="fill:#00ff00;stroke:#000000;stroke-width:1.75170958"
       d="M 64.379527,218.15091 C 41.215732,213.62717 19.943268,195.59525 13.620402,175.12419 5.6189765,149.21859 11.95795,124.58835 31.070528,107.32128 63.580619,77.950369 124.83619,83.260853 148.38782,117.49198 c 8.2267,11.95709 11.01161,21.1774 11.15596,36.93521 0.11186,12.21164 -0.584,15.57888 -5.30374,25.66474 -9.10053,19.44739 -24.15464,31.34534 -47.28223,37.36931 -10.874284,2.83239 -30.018665,3.14249 -42.578283,0.68967 z m 28.513162,-34.96793 c 8.749491,-2.42976 18.072361,-10.82664 20.632161,-18.5829 2.86963,-8.69509 1.15209,-20.41641 -4.17012,-28.45882 -8.66882,-13.09946 -29.441925,-16.24253 -42.338302,-6.40598 -8.234274,6.28058 -11.395996,12.97575 -11.392727,24.1249 0.0046,15.43011 7.81734,26.25708 21.232908,29.42449 8.280619,1.95504 8.637973,1.95278 16.03608,-0.10169 z"
       id="path6976"
       inkscape:connector-curvature="0"
       transform="matrix(0.26458333,0,0,0.26458333,0,204.39582)" />
    <path
       style="fill:#00ff00;stroke:#000000;stroke-width:1.75170958"
       d="M 60.918576,215.51435 C 33.328649,208.10026 14.66854,186.44242 12.383097,159.18167 9.1134871,120.18179 40.324477,90.358614 84.270776,90.490517 c 7.846899,0.02355 17.780974,0.852584 22.075734,1.842292 19.8946,4.58463 37.40199,18.254251 45.82099,35.776641 4.42368,9.20698 5.05004,12.48479 5.05125,26.43379 0.001,14.22076 -0.56557,17.0581 -5.30053,26.5336 -12.09953,24.2133 -37.0039,37.45695 -69.822761,37.13037 -6.371721,-0.0634 -15.901319,-1.27519 -21.176883,-2.69286 z M 92.583413,184.7981 c 21.184777,-7.09294 29.312287,-27.02137 19.146777,-46.94741 -8.64486,-16.94532 -32.82225,-20.40382 -48.206969,-6.89586 -17.013809,14.93832 -10.436872,46.45599 11.075876,53.07725 10.271535,3.1614 10.766899,3.1825 17.984316,0.76602 z"
       id="path6978"
       inkscape:connector-curvature="0"
       transform="matrix(0.26458333,0,0,0.26458333,0,204.39582)" />
    <path
       style="fill:#00ff00;stroke:#000000;stroke-width:1.75170958"
       d="m 61.199109,213.9441 c -19.275732,-5.41433 -33.60506,-17.41467 -41.834556,-35.03507 -4.171805,-8.93236 -4.907339,-12.74561 -4.89935,-25.39979 0.008,-12.73936 0.716426,-16.33207 4.905425,-24.87885 12.230705,-24.95421 39.333778,-38.153159 73.914614,-35.995736 34.349788,2.143008 60.123418,25.488606 61.894098,56.063306 1.03638,17.89547 -0.84252,26.25567 -8.46675,37.67305 -12.84593,19.23692 -31.46028,28.47214 -59.560838,29.55015 -11.216232,0.43029 -19.676739,-0.21423 -25.952643,-1.97706 z m 35.792048,-29.60855 c 12.569623,-5.85274 18.663423,-14.36804 19.605823,-27.39661 1.69693,-23.45983 -15.17773,-38.82359 -38.034985,-34.62946 -21.756962,3.99223 -32.396952,27.52618 -21.73426,48.07269 3.984067,7.67712 9.43019,12.12445 19.039197,15.5475 9.341149,3.32763 10.788625,3.2184 21.124225,-1.59412 z"
       id="path6980"
       inkscape:connector-curvature="0"
       transform="matrix(0.26458333,0,0,0.26458333,0,204.39582)" />
    <path
       style="fill:#00ff00;stroke:#000000;stroke-width:1.75170958"
       d="M 181.74407,154.3851 V 92.199404 h 20.91477 20.91478 l 0.54367,6.402818 0.54367,6.402818 5.25513,-4.41172 c 10.62963,-8.923676 20.11131,-12.421039 33.30404,-12.284364 22.26274,0.23064 40.49154,10.100479 48.43109,26.222624 3.93213,7.98463 4.12325,10.22639 4.70458,55.18097 l 0.60594,46.85824 h -22.06439 -22.06438 v -40.03028 c 0,-38.69539 -0.13236,-40.22668 -3.9692,-45.92017 -7.66218,-11.3699 -23.61763,-13.20827 -34.57976,-3.98424 -10.00828,8.42141 -10.49891,10.86014 -10.49891,52.18594 v 37.74875 h -21.02051 -21.02052 z"
       id="path6982"
       inkscape:connector-curvature="0"
       transform="matrix(0.26458333,0,0,0.26458333,0,204.39582)" />
    <path
       style="fill:#ff0000;stroke:#000000;stroke-width:1.75170958"
       d="m 387.15751,217.37378 c -21.13987,-5.69322 -36.46677,-17.29987 -45.51011,-34.46358 -4.47833,-8.4996 -4.87703,-10.83152 -4.87703,-28.5251 0,-16.93969 0.50535,-20.22163 4.18073,-27.1515 13.41278,-25.28956 37.09808,-38.675776 68.72397,-38.840715 25.4534,-0.132748 43.17768,6.904052 58.41148,23.190215 12.75286,13.63384 15.82743,21.94838 15.82743,42.802 0,15.58247 -0.53437,18.60522 -4.83851,27.36965 -5.38952,10.97456 -18.06323,23.81822 -29.0176,29.40672 -17.0489,8.6977 -43.84487,11.34419 -62.90036,6.21231 z m 38.93517,-37.33498 c 15.6219,-9.12368 18.83605,-31.43837 6.61951,-45.95691 -21.29021,-25.30198 -62.41027,-0.39809 -50.5632,30.62302 1.58486,4.1499 4.75766,9.30777 7.05067,11.46194 9.48528,8.91096 25.40438,10.58168 36.89302,3.87195 z"
       id="path6984"
       inkscape:connector-curvature="0"
       transform="matrix(0.26458333,0,0,0.26458333,0,204.39582)" />
    <path
       style="fill:#ff0000;stroke:#000000;stroke-width:1.75170958"
       d="m 387.1332,215.61585 c -19.59289,-5.2759 -34.52685,-16.5122 -43.45862,-32.69821 -4.77684,-8.6565 -5.11192,-10.5268 -5.11192,-28.53254 0,-18.00575 0.33508,-19.87605 5.11192,-28.53255 6.732,-12.19962 17.80391,-22.16795 32.19464,-28.985679 11.26941,-5.338978 12.54018,-5.543321 34.47296,-5.543321 21.99926,0 23.17507,0.19082 34.64052,5.621733 13.87738,6.573387 28.11982,20.222007 33.39356,32.001257 5.37608,12.00782 5.23339,39.89596 -0.26154,51.12077 -4.92363,10.05775 -19.19825,24.82313 -28.66923,29.65487 -15.70952,8.0144 -44.3698,10.72517 -62.31229,5.89367 z m 41.0369,-35.14516 c 9.64324,-7.19972 11.95114,-12.20372 11.95114,-25.91248 0,-11.30722 -0.55678,-13.43777 -5.05178,-19.33102 -5.56831,-7.30042 -16.59056,-13.17178 -24.72728,-13.17178 -12.93654,0 -27.12714,11.34579 -30.67637,24.52664 -3.48275,12.93396 4.61914,30.68146 16.45095,36.03642 7.89651,3.57388 26.01597,2.35976 32.05334,-2.14778 z"
       id="path6986"
       inkscape:connector-curvature="0"
       transform="matrix(0.26458333,0,0,0.26458333,0,204.39582)" />
    <path
       style="fill:#ff0000;stroke:#000000;stroke-width:1.75170958"
       d="m 392.82508,215.37945 c -20.48007,-4.5885 -37.1895,-15.86307 -46.42031,-31.32178 -6.03134,-10.10062 -6.13,-10.58173 -6.07061,-29.60443 0.0512,-16.39519 0.63994,-20.43764 3.87,-26.57207 5.7304,-10.88301 18.43441,-22.5685 31.56111,-29.03075 11.44922,-5.636433 12.27892,-5.775127 34.54007,-5.773766 20.87674,0.0013 23.62526,0.385063 32.44346,4.5302 12.60258,5.924046 28.49972,20.622716 33.51977,30.992766 5.31877,10.9871 5.74036,39.53406 0.73754,49.9404 -4.42226,9.19871 -17.42754,23.24564 -26.37847,28.49123 -12.49202,7.32082 -42.83095,11.70255 -57.80256,8.3482 z m 33.99434,-32.89724 c 10.31506,-5.36826 13.24169,-10.70376 13.90697,-25.35356 0.71173,-15.67255 -1.60354,-21.90938 -10.67564,-28.75788 -8.52543,-6.43583 -18.39781,-8.86934 -26.78462,-6.60233 -8.74773,2.36456 -18.76522,10.55211 -22.4746,18.36903 -7.92521,16.70116 2.00187,40.86604 18.48802,45.00425 7.28889,1.8296 21.56273,0.45118 27.53987,-2.65951 z"
       id="path6988"
       inkscape:connector-curvature="0"
       transform="matrix(0.26458333,0,0,0.26458333,0,204.39582)" />
    <path
       style="fill:#00ff00;stroke:#000000;stroke-width:1.75170958"
       d="m 512.81719,170.15048 v -46.4203 h -8.75855 -8.75855 V 108.06077 92.39136 l 8.32062,-0.533905 8.32062,-0.533905 1.11319,-22.772225 c 1.23676,-25.300308 4.15341,-37.028115 11.8516,-47.655159 10.14644,-14.0067556 21.71934,-18.8721872 42.00614,-17.6600569 9.20078,0.5497443 15.79398,2.0425161 21.22844,4.8063486 4.33548,2.2049193 8.11948,4.2145213 8.40888,4.4657823 0.2894,0.251261 -2.77378,7.110671 -6.80707,15.243133 l -7.33325,14.786295 -6.43659,-1.718024 c -8.23462,-2.197946 -15.17153,-0.440098 -17.92474,4.542211 -1.36902,2.477423 -2.19366,11.658554 -2.2402,24.941179 l -0.0737,21.020516 h 23.64808 23.64808 l 1.09749,-23.64808 c 1.35218,-29.136249 5.04275,-40.465405 17.1144,-52.537055 10.02654,-10.0265438 19.59185,-13.0708329 37.41276,-11.9071246 10.57405,0.6904868 24.06875,5.0098157 28.98359,9.2769496 0.2894,0.251261 -2.77378,7.110671 -6.80705,15.243133 l -7.33325,14.786295 -6.73032,-1.796424 C 650.6547,36.44041 645.51345,44.725965 646.3272,73.682996 l 0.49573,17.640554 14.45161,0.50877 14.4516,0.508771 v 15.694539 15.69455 h -14.88953 -14.88953 v 46.4203 46.42031 H 624.9266 603.90609 v -46.42031 -46.4203 h -24.52394 -24.52393 v 46.4203 46.42031 H 533.8377 512.81719 Z"
       id="path6990"
       inkscape:connector-curvature="0"
       transform="matrix(0.26458333,0,0,0.26458333,0,204.39582)" />
    <path
       style="fill:#00ff00;stroke:#000000;stroke-width:1.75170958"
       d="M 183.49578,154.3851 V 93.951114 h 19.26881 c 18.80671,0 19.26944,0.09452 19.29563,3.941347 0.0555,8.151859 2.67935,9.304169 9.01287,3.958129 9.47868,-8.000821 18.64592,-11.321882 31.36961,-11.364424 15.79235,-0.0528 27.57396,3.815437 37.06448,12.169334 13.90508,12.23974 14.27276,13.85596 15.05581,66.1812 l 0.68812,45.98238 H 294.9179 274.58468 v -35.69109 c 0,-41.03277 -0.52247,-44.95285 -6.90146,-51.78159 -13.87219,-14.85023 -39.32096,-6.67864 -43.76724,14.05364 -1.03542,4.82802 -1.88259,23.32241 -1.88259,41.09863 v 32.32041 h -19.2688 -19.26881 z"
       id="path6992"
       inkscape:connector-curvature="0"
       transform="matrix(0.26458333,0,0,0.26458333,0,204.39582)" />
    <path
       style="fill:#00ff00;stroke:#000000;stroke-width:1.75170958"
       d="M 185.24749,154.3851 V 95.702824 h 17.29813 17.29814 l 1.05102,5.255126 c 1.36674,6.83369 4.40854,6.67881 15.24635,-0.77629 20.01923,-13.770813 53.40806,-9.01203 68.61755,9.7798 6.4941,8.02367 8.24031,22.23663 8.30953,67.63379 l 0.0541,35.47212 H 294.90088 276.67947 L 276.07,174.96768 c -0.54875,-34.30424 -0.95847,-38.69071 -4.11288,-44.03255 -9.63359,-16.31401 -32.92782,-16.27713 -45.13381,0.0715 -4.43577,5.94123 -6.41455,22.83123 -6.48431,55.34721 l -0.0573,26.71357 h -17.51709 -17.5171 z"
       id="path6994"
       inkscape:connector-curvature="0"
       transform="matrix(0.26458333,0,0,0.26458333,0,204.39582)" />
    <path
       style="fill:#ff0000;stroke:#000000;stroke-width:1.75170958"
       d="m 514.5689,168.39877 v -46.4203 h -8.75855 -8.75855 V 107.96479 93.951114 l 5.69306,-0.02682 c 9.9763,-0.047 10.58042,-1.285506 12.04283,-24.689068 0.73869,-11.821589 2.24649,-25.259679 3.35068,-29.862426 2.83085,-11.800346 11.14061,-23.479865 20.7064,-29.103243 7.23224,-4.2515726 9.87295,-4.7787963 23.89614,-4.7709224 12.51848,0.00702 17.48484,0.8010398 24.11423,3.855331 l 8.34884,3.8464794 -6.47122,13.078109 -6.47122,13.07811 -10.12669,-0.2922 c -15.4972,-0.447162 -16.27818,0.912147 -16.97443,29.544408 l -0.57365,23.590536 h 24.58029 24.58028 l 0.86286,-5.693056 c 0.47457,-3.131181 1.26747,-13.575749 1.76199,-23.210152 1.18646,-23.115128 4.66318,-34.212802 13.85448,-44.223515 12.96917,-14.1253936 28.39284,-17.6773299 51.08976,-11.7655309 15.66252,4.0795689 15.75939,4.3078129 8.2657,19.4758799 l -6.48351,13.123334 -7.46769,-1.115748 c -16.49936,-2.465173 -20.39873,3.586021 -20.49378,31.803004 -0.0362,10.757666 0.51143,20.137326 1.21705,20.843691 0.70561,0.706365 7.20883,1.664602 14.4516,2.129415 l 13.16867,0.845112 v 13.783308 13.78332 h -14.88953 -14.88953 v 46.4203 46.42031 H 624.9266 605.6578 v -46.42031 -46.4203 h -26.27565 -26.27564 v 46.4203 46.42031 H 533.8377 514.5689 Z"
       id="path6996"
       inkscape:connector-curvature="0"
       transform="matrix(0.26458333,0,0,0.26458333,0,204.39582)" />
    <path
       style="fill:#ff0000;stroke:#000000;stroke-width:1.75170958"
       d="m 516.32061,166.64706 v -46.4203 h -8.75855 -8.75855 V 107.96479 95.702824 h 4.98364 c 8.5447,0 10.48287,-4.217229 12.51203,-27.224689 1.0161,-11.521029 2.69414,-24.677048 3.72896,-29.235599 2.35206,-10.361091 9.8236,-20.838377 19.36122,-27.150073 6.57948,-4.3540946 8.86854,-4.8505546 22.34777,-4.8468727 10.31892,0.00282 17.60738,1.0021483 23.29536,3.1940557 l 8.2779,3.189954 -6.11029,12.133404 -6.11028,12.133402 h -10.44786 c -14.82307,0 -15.97668,2.184479 -17.13118,32.439743 l -0.9011,23.614965 h 26.38463 26.38464 l 1.00658,-11.82404 c 3.25583,-38.24529 4.27886,-44.175757 9.17103,-53.16429 7.70181,-14.150778 21.2996,-22.5971507 36.37906,-22.5971507 10.0823,0 24.23635,3.0371243 28.4149,6.0971637 3.12729,2.290178 3.02585,2.858132 -2.52187,14.119827 l -5.78023,11.733669 -6.80107,-1.087533 c -16.83723,-2.692383 -21.39568,5.101512 -20.66895,35.339138 l 0.49286,20.507361 13.57575,1.584257 13.57575,1.584257 v 11.991497 11.99149 H 657.33323 642.4437 v 46.4203 46.42031 h -17.5171 -17.51709 v -46.42031 -46.4203 H 579.38215 551.3548 v 46.4203 46.42031 h -17.5171 -17.51709 z"
       id="path6998"
       inkscape:connector-curvature="0"
       transform="matrix(0.26458333,0,0,0.26458333,0,204.39582)" />
    <path
       style="fill:#ffcc00;stroke:#000000;stroke-width:1.75170958"
       d="m 722.38693,217.50828 c -8.30315,-2.95999 -15.98701,-10.05021 -20.94892,-19.33044 -3.37611,-6.31433 -3.809,-10.33956 -4.38004,-40.72725 l -0.63367,-33.72041 h -9.4732 -9.47321 V 108.05634 92.382491 l 9.19648,-0.52947 9.19647,-0.529471 0.48877,-23.210153 0.48877,-23.210152 h 20.91883 20.91883 l 0.48877,23.210152 0.48877,23.210153 12.6999,0.514669 12.69989,0.514668 v 15.688643 15.68865 h -13.13782 -13.13782 l 0.0258,24.086 c 0.0324,30.19088 1.08335,32.84415 13.01047,32.84559 l 8.51699,0.001 4.89919,15.71632 c 5.48135,17.58388 5.72874,16.92723 -7.93953,21.07416 -10.6603,3.23431 -25.92789,3.25836 -34.91375,0.055 z"
       id="path7000"
       inkscape:connector-curvature="0"
       transform="matrix(0.26458333,0,0,0.26458333,0,204.39582)" />
    <path
       style="fill:#ffcc00;stroke:#000000;stroke-width:1.75170958"
       d="m 720.15489,214.02817 c -11.2736,-5.73828 -18.35756,-15.53506 -20.10816,-27.80862 -0.71091,-4.98423 -1.35011,-21.47747 -1.42044,-36.65166 l -0.12788,-27.58942 H 688.864 679.2296 V 107.96479 93.951114 l 6.56891,-0.02682 c 11.33834,-0.0463 11.75498,-0.893787 12.44209,-25.30856 l 0.61805,-21.960776 h 18.90856 18.90856 l 0.61805,21.960776 c 0.71195,25.296939 0.69368,25.267943 15.94551,25.30856 l 10.07233,0.02682 v 14.013676 14.01368 h -13.13782 -13.13782 l 0.0989,23.21015 c 0.0559,13.11245 1.00846,25.87747 2.18963,29.34114 1.98452,5.81941 2.54563,6.15745 11.04136,6.65192 l 8.9506,0.52095 3.7493,12.9036 c 2.06212,7.09699 3.7493,14.07694 3.7493,15.51101 0,3.70227 -9.26389,6.57491 -24.52393,7.60463 -11.70217,0.78964 -14.12114,0.386 -22.13626,-3.6937 z"
       id="path7002"
       inkscape:connector-curvature="0"
       transform="matrix(0.26458333,0,0,0.26458333,0,204.39582)" />
    <path
       style="fill:#ffcc00;stroke:#000000;stroke-width:1.75170958"
       d="m 724.8264,214.73563 c -7.95929,-3.38582 -15.81469,-10.56184 -19.67465,-17.97306 -3.46204,-6.64722 -3.89501,-10.62263 -4.56763,-41.93955 l -0.74306,-34.59626 h -9.42988 -9.42987 V 107.96479 95.702824 l 5.69306,-0.02682 c 3.13118,-0.01475 6.76668,-0.707045 8.0789,-1.538425 3.2627,-2.067152 5.3293,-13.992492 5.42056,-31.279307 l 0.0763,-14.451604 h 17.51709 17.5171 l 0.0418,15.327459 c 0.0396,14.515601 1.87265,27.460199 4.22118,29.808731 0.58624,0.586242 5.77892,1.406805 11.53929,1.823471 l 10.47338,0.757578 v 12.051423 12.05143 h -13.13782 -13.13782 l 0.10442,20.58259 c 0.11333,22.34037 1.79953,36.32505 4.73366,39.25917 1.02524,1.02525 5.48789,2.27254 9.91699,2.77176 7.98438,0.89996 8.07449,0.98399 10.58874,9.87433 5.22998,18.49305 5.22876,18.38607 0.23129,20.28611 -7.01454,2.66692 -31.11435,3.82728 -36.03301,1.73491 z"
       id="path7004"
       inkscape:connector-curvature="0"
       transform="matrix(0.26458333,0,0,0.26458333,0,204.39582)" />
    <path
       style="fill:#ffcc00;stroke:#000000;stroke-width:1.75170958"
       d="m 821.61914,217.53291 c -29.01805,-9.06883 -45.71331,-34.93089 -43.96372,-68.1027 2.05634,-38.98776 34.31144,-66.691 70.61416,-60.649061 4.8172,0.801737 9.59319,1.504693 10.61331,1.562125 1.02012,0.05743 6.34093,2.805855 11.82404,6.107608 l 9.96928,6.003188 v -5.127333 -5.127333 h 21.02051 21.02052 v 62.185696 62.18569 h -20.14466 -20.14466 v -7.00684 c 0,-3.85376 -0.38732,-7.00684 -0.8607,-7.00684 -0.47338,0 -4.44807,2.73831 -8.83265,6.08513 -13.86309,10.58194 -34.31911,14.13991 -51.11543,8.89067 z m 38.42008,-34.32169 c 25.94533,-7.20573 29.92983,-44.27113 6.0042,-55.85334 -27.4485,-13.28759 -54.24329,14.46424 -40.47523,41.92088 3.10786,6.19777 8.27198,10.46131 16.01652,13.22336 8.1981,2.92381 10.20276,3.00083 18.45451,0.7091 z"
       id="path7006"
       inkscape:connector-curvature="0"
       transform="matrix(0.26458333,0,0,0.26458333,0,204.39582)" />
    <path
       style="fill:#ffcc00;stroke:#000000;stroke-width:1.75170958"
       d="m 821.68594,215.80092 c -15.97358,-4.99464 -29.14935,-16.94412 -36.8149,-33.38847 -4.33422,-9.29789 -4.90045,-12.53087 -4.90875,-28.02735 -0.009,-15.99977 0.46227,-18.50337 5.43575,-28.90321 6.24755,-13.06403 17.15089,-24.57484 28.64287,-30.238681 6.70917,-3.306625 10.83749,-3.919659 26.39589,-3.919659 18.18417,0 18.59751,0.09214 29.46669,6.568911 6.06309,3.612899 11.36145,6.568909 11.77412,6.568909 0.41267,0 0.75031,-2.36481 0.75031,-5.255127 v -5.255129 h 19.2688 19.26881 v 60.433986 60.43398 h -18.39295 -18.39295 v -6.02761 c 0,-3.31518 -0.61275,-6.4063 -1.36166,-6.86915 -0.74891,-0.46285 -5.6756,1.88125 -10.94819,5.20912 -16.89944,10.66631 -34.22527,13.65943 -50.18384,8.66948 z m 39.91433,-31.70481 c 16.12505,-5.68925 24.81773,-21.8978 20.64056,-38.48683 -5.14692,-20.44029 -29.74621,-29.76865 -47.19018,-17.89511 -12.2734,8.35412 -16.76258,20.50157 -13.0215,35.23544 2.53604,9.98796 9.44969,17.60871 19.07169,21.02229 9.36607,3.32278 11.3988,3.3351 20.49943,0.12421 z"
       id="path7008"
       inkscape:connector-curvature="0"
       transform="matrix(0.26458333,0,0,0.26458333,0,204.39582)" />
    <path
       style="fill:#ffcc00;stroke:#000000;stroke-width:1.75170958"
       d="m 824.6215,214.93272 c -16.10173,-4.91568 -30.21906,-17.15112 -37.8978,-32.8459 -4.17051,-8.52422 -4.72177,-11.70815 -4.74938,-27.43118 -0.0278,-15.81829 0.49994,-18.89635 4.76641,-27.80176 5.7454,-11.99239 17.13817,-24.1792 27.58715,-29.50987 6.43012,-3.280399 10.49559,-3.890522 26.03596,-3.907333 17.93739,-0.0194 18.7157,0.146362 29.94791,6.37842 6.34255,3.519083 12.0575,5.872753 12.69989,5.230353 0.64239,-0.64239 1.16799,-3.00728 1.16799,-5.255304 0,-4.009469 0.33365,-4.087322 17.51709,-4.087322 h 17.5171 v 58.682276 58.68227 h -16.64124 -16.64124 v -5.31011 c 0,-2.92056 -1.08746,-5.7274 -2.41658,-6.23743 -1.32912,-0.51003 -7.83234,1.80862 -14.45161,5.15255 -18.6325,9.41281 -32.32822,11.95843 -44.44165,8.26034 z m 42.296,-31.77449 c 10.66483,-5.44079 16.12687,-14.16905 16.94928,-27.0847 0.87662,-13.76717 -3.95201,-23.62348 -14.55786,-29.71582 -14.17857,-8.14462 -27.20897,-7.10064 -38.84036,3.11187 -11.227,9.85743 -14.24631,24.94326 -7.79138,38.92919 8.259,17.89484 26.29792,23.91299 44.24032,14.75946 z"
       id="path7010"
       inkscape:connector-curvature="0"
       transform="matrix(0.26458333,0,0,0.26458333,0,204.39582)" />
    <path
       style="fill:#ffcc00;stroke:#000000;stroke-width:1.75170958"
       d="m 941.98604,215.57164 c 0,-0.54953 10.58138,-13.86431 23.51417,-29.5884 30.89719,-37.56576 29.16988,-34.34109 22.74209,-42.45657 -2.90067,-3.66227 -12.97181,-16.7091 -22.38031,-28.99297 L 948.75561,92.199404 h 24.56385 24.56385 l 10.69599,14.050896 c 5.8829,7.72799 11.2391,13.70969 11.9028,13.29267 0.6637,-0.41702 5.5422,-6.71787 10.8411,-14.00187 l 9.6344,-13.243656 24.9815,-0.04902 24.9814,-0.04902 -11.914,15.327456 c -6.5527,8.43011 -16.7453,21.70036 -22.6501,29.48946 l -10.736,14.162 26.1339,32.05097 c 14.3736,17.62803 26.1339,32.34134 26.1339,32.69623 0,0.3549 -11.2374,0.64527 -24.972,0.64527 h -24.9719 l -13.6472,-17.5171 c -7.506,-9.6344 -14.2017,-17.47719 -14.8795,-17.42843 -0.6777,0.0488 -7.1442,7.90563 -14.37,17.45969 l -13.13783,17.37102 -24.96186,0.0574 c -13.72903,0.0316 -24.96187,-0.39221 -24.96187,-0.94174 z"
       id="path7012"
       inkscape:connector-curvature="0"
       transform="matrix(0.26458333,0,0,0.26458333,0,204.39582)" />
    <path
       style="fill:#ffcc00;stroke:#000000;stroke-width:1.75170958"
       d="m 945.48946,214.17841 c 0,-0.35236 10.64164,-13.87327 23.64808,-30.04646 15.38657,-19.13283 23.64808,-30.85106 23.64808,-33.54276 0,-2.43739 -4.88098,-10.42355 -11.88092,-19.43933 -6.5345,-8.41631 -15.64567,-20.22906 -20.24704,-26.25056 l -8.36612,-10.948186 22.43668,0.0098 22.43668,0.0098 10.1354,13.128006 c 5.5745,7.22041 11.2838,13.12801 12.6874,13.12801 1.4036,0 6.9241,-5.91202 12.2678,-13.13782 l 9.7159,-13.137828 h 22.8541 22.8541 l -8.5912,10.948188 c -7.3466,9.36219 -29.656,38.43969 -34.0663,44.40123 -0.8784,1.18735 8.3094,13.91174 24.0321,33.28248 l 25.4542,31.36021 -22.3961,0.50984 -22.3961,0.50983 -4.3793,-5.03353 c -2.4086,-2.76843 -8.9318,-10.65106 -14.4961,-17.51695 -5.5987,-6.90842 -11.0748,-12.08839 -12.262,-11.59888 -1.1798,0.48651 -7.9285,8.33678 -14.9971,17.44505 l -12.85203,16.5605 h -22.6201 c -12.44106,0 -22.62011,-0.2883 -22.62011,-0.64067 z"
       id="path7014"
       inkscape:connector-curvature="0"
       transform="matrix(0.26458333,0,0,0.26458333,0,204.39582)" />
    <path
       style="fill:#ffcc00;stroke:#000000;stroke-width:1.75170958"
       d="m 950.32056,210.87773 c 15.39883,-19.19433 41.50991,-53.69677 42.83032,-56.59476 2.35922,-5.17791 -0.44543,-10.16919 -20.61358,-36.6849 L 955.88353,95.702824 h 20.07439 20.07439 l 10.29969,12.699896 c 6.3145,7.78602 11.6021,12.69989 13.6658,12.69989 2.1207,0 6.9445,-4.69629 13.0388,-12.6942 l 9.6727,-12.694207 20.685,-0.0057 20.685,-0.0057 -8.3661,10.948187 c -4.6014,6.0215 -13.8222,17.97479 -20.4908,26.56286 l -12.1245,15.61467 3.284,6.09818 c 1.8063,3.354 11.8786,16.82241 22.3829,29.92978 10.5043,13.10738 19.8743,24.81693 20.8221,26.02123 1.3591,1.72678 -2.6728,2.16567 -19.0736,2.07623 l -20.7971,-0.1134 -13.6486,-16.52784 c -7.761,-9.39823 -14.9739,-16.52783 -16.7207,-16.52783 -1.7939,0 -8.5055,6.9088 -16.1305,16.60432 l -13.05834,16.60432 -20.79708,0.0369 c -16.4103,0.0291 -20.42654,-0.42495 -19.04042,-2.15272 z"
       id="path7016"
       inkscape:connector-curvature="0"
       transform="matrix(0.26458333,0,0,0.26458333,0,204.39582)" />
    <path
       style="fill:#ffcc00;stroke:#000000;stroke-width:1.75170958"
       d="M 1115.4053,154.3851 V 92.199404 h 21.0205 21.0205 v 62.185696 62.18569 h -21.0205 -21.0205 z"
       id="path7018"
       inkscape:connector-curvature="0"
       transform="matrix(0.26458333,0,0,0.26458333,0,204.39582)" />
    <path
       style="fill:#ffcc00;stroke:#000000;stroke-width:1.75170958"
       d="M 1117.157,154.3851 V 93.951114 h 19.2688 19.2688 v 60.433986 60.43398 h -19.2688 -19.2688 z"
       id="path7020"
       inkscape:connector-curvature="0"
       transform="matrix(0.26458333,0,0,0.26458333,0,204.39582)" />
    <path
       style="fill:#ffcc00;stroke:#000000;stroke-width:1.75170958"
       d="M 1118.9087,154.3851 V 95.702824 h 17.5171 17.5171 v 58.682276 58.68227 h -17.5171 -17.5171 z"
       id="path7022"
       inkscape:connector-curvature="0"
       transform="matrix(0.26458333,0,0,0.26458333,0,204.39582)" />
    <path
       style="fill:#ffcc00;stroke:#000000;stroke-width:1.75170958"
       d="m 1130.4776,62.353023 c -7.3985,-2.213977 -14.857,-10.144885 -16.99,-18.066054 -3.9584,-14.70067 6.7587,-29.044932 22.7241,-30.414798 26.756,-2.295728 36.6332,34.210471 12.5428,46.358533 -8.3938,4.232756 -10.4331,4.469562 -18.2769,2.122319 z"
       id="path7024"
       inkscape:connector-curvature="0"
       transform="matrix(0.26458333,0,0,0.26458333,0,204.39582)" />
    <path
       style="fill:#ffcc00;stroke:#000000;stroke-width:1.75170958"
       d="m 1131.6036,60.931948 c -5.9474,-1.716819 -13.9428,-10.070305 -16.208,-16.933992 -3.9157,-11.864755 5.0544,-25.609347 18.34,-28.101748 25.707,-4.82266 37.0963,29.586791 14.0763,42.527572 -7.2594,4.080904 -9.5383,4.43356 -16.2083,2.508168 z"
       id="path7026"
       inkscape:connector-curvature="0"
       transform="matrix(0.26458333,0,0,0.26458333,0,204.39582)" />
    <path
       style="fill:#ffcc00;stroke:#000000;stroke-width:1.75170958"
       d="m 1130.1131,58.164788 c -10.2856,-4.477411 -16.1351,-17.042761 -12.2142,-26.237448 4.0656,-9.534108 10.7054,-14.175594 20.2786,-14.175594 10.1125,0 16.4871,4.914278 19.5243,15.051454 1.637,5.463873 1.4224,7.575771 -1.3432,13.21961 -3.3802,6.897779 -13.0144,14.699114 -18.0022,14.577256 -1.5435,-0.03771 -5.253,-1.133586 -8.2433,-2.435278 z"
       id="path7028"
       inkscape:connector-curvature="0"
       transform="matrix(0.26458333,0,0,0.26458333,0,204.39582)" />
    <path
       style="fill:#ffcc00;stroke:#000000;stroke-width:1.75170958"
       d="m 1204.7247,216.13286 c -8.4353,-5.74103 -12.5101,-12.11651 -13.5306,-21.17052 -1.7914,-15.89361 10.8951,-29.19914 27.8268,-29.18458 27.4237,0.0236 36.3927,38.10371 12.0246,51.05296 -8.4097,4.4689 -19.1476,4.18419 -26.3208,-0.69786 z"
       id="path7030"
       inkscape:connector-curvature="0"
       transform="matrix(0.26458333,0,0,0.26458333,0,204.39582)" />
    <path
       style="fill:#ffcc00;stroke:#000000;stroke-width:1.75170958"
       d="m 1209.1218,216.67117 c -5.6452,-2.30301 -12.8096,-10.43911 -14.978,-17.00957 -9.5424,-28.91383 32.5411,-44.93937 46.6752,-17.77407 10.0357,19.28844 -11.5679,42.99563 -31.6972,34.78364 z"
       id="path7032"
       inkscape:connector-curvature="0"
       transform="matrix(0.26458333,0,0,0.26458333,0,204.39582)" />
    <path
       style="fill:#ffcc00;stroke:#000000;stroke-width:1.75170958"
       d="m 1207.2951,213.3073 c -16.7643,-10.22315 -16.8107,-32.35503 -0.085,-40.45182 8.9165,-4.31638 13.4987,-4.48114 21.326,-0.7668 11.9313,5.66177 16.3713,20.52571 9.4983,31.79822 -7.1123,11.66517 -20.3871,15.73337 -30.7393,9.4204 z"
       id="path7034"
       inkscape:connector-curvature="0"
       transform="matrix(0.26458333,0,0,0.26458333,0,204.39582)" />
    <path
       style="fill:#ffcc00;stroke:#000000;stroke-width:1.75170958"
       d="M 1276.5626,186.79172 V 92.199404 h 21.0205 21.0205 v 7.089385 7.089381 l 6.5689,-5.2578 c 11.1144,-8.89602 22.2027,-12.816807 36.1648,-12.787779 25.139,0.05227 43.3491,11.64198 54.8474,34.907249 6.2361,12.61773 6.5673,14.1501 6.5079,30.10257 -0.049,13.2221 -0.9084,18.95574 -4.0274,26.87455 -5.2247,13.265 -18.6268,27.80828 -31.4119,34.0867 -8.67,4.25755 -12.0196,4.89469 -25.7328,4.89469 -16.9793,0 -23.2169,-1.76445 -35.4721,-10.03417 l -7.4448,-5.02367 v 38.62177 38.62176 h -21.0205 -21.0205 z m 79.3127,-3.60874 c 8.7481,-2.42937 18.0723,-10.82629 20.631,-18.5794 2.7415,-8.30689 1.2172,-22.51327 -3.0254,-28.19576 -6.9748,-9.34205 -12.2058,-11.80179 -25.0982,-11.80179 -12.8924,0 -18.1234,2.45974 -25.0983,11.80179 -4.1977,5.62247 -5.7756,19.86253 -3.0993,27.97167 2.5538,7.73831 11.6083,16.40965 19.439,18.61663 8.1755,2.30412 8.609,2.30911 16.2512,0.18686 z"
       id="path7036"
       inkscape:connector-curvature="0"
       transform="matrix(0.26458333,0,0,0.26458333,0,204.39582)" />
    <path
       style="fill:#ffcc00;stroke:#000000;stroke-width:1.75170958"
       d="M 1278.3143,186.79172 V 93.951114 h 19.2688 19.2688 v 7.006836 c 0,3.85376 0.4856,7.00684 1.0791,7.00684 0.5935,0 4.8446,-2.76414 9.4469,-6.14253 11.0422,-8.105728 20.8261,-11.374565 34.0449,-11.374565 24.1422,0 42.2951,11.612935 53.3938,34.157605 5.5439,11.26124 5.6693,12.02843 5.097,31.17285 -0.4905,16.40947 -1.2566,20.91986 -4.6729,27.51015 -5.4483,10.51018 -18.6,23.88367 -28.3204,28.79796 -16.6132,8.39902 -41.1933,6.9977 -57.8762,-3.29955 -5.551,-3.42628 -10.5651,-6.2296 -11.1424,-6.2296 -0.5774,0 -1.0498,17.34193 -1.0498,38.53761 v 38.53761 h -19.2688 -19.2688 z m 83.3354,-4.55798 c 19.6462,-9.32273 24.0721,-36.52899 8.4118,-51.70757 -6.0084,-5.8236 -6.3619,-5.92014 -21.6788,-5.92014 -15.3169,0 -15.6704,0.0965 -21.6789,5.92014 -12.0914,11.71948 -12.7057,32.21956 -1.3293,44.36006 10.7666,11.48967 22.5266,13.87164 36.2752,7.34751 z"
       id="path7038"
       inkscape:connector-curvature="0"
       transform="matrix(0.26458333,0,0,0.26458333,0,204.39582)" />
    <path
       style="fill:#ffcc00;stroke:#000000;stroke-width:1.75170958"
       d="M 1280.066,186.79172 V 95.702824 h 17.5171 17.5171 v 6.027606 c 0,3.31518 0.7379,6.48363 1.6397,7.04101 0.9019,0.55737 6.5487,-2.15937 12.5484,-6.03722 13.6198,-8.802851 22.1045,-11.14573 36.6397,-10.117204 21.8374,1.545246 37.7957,12.949564 47.6813,34.074674 5.1427,10.98954 5.2926,12.00823 4.4337,30.12932 -1.1782,24.85701 -6.2148,34.41997 -26.0618,49.48325 -16.2792,12.35539 -40.4714,12.50573 -62.6944,0.38961 -8.7372,-4.7636 -11.5356,-5.60518 -12.6731,-3.81135 -0.8029,1.26618 -1.4719,18.65874 -1.4867,38.65013 l -0.027,36.34797 h -17.5171 -17.5171 z m 82.1798,-3.4266 c 11.0544,-5.63953 19.3998,-18.48297 19.3998,-29.85588 0,-6.77048 -4.2822,-16.6389 -9.9352,-22.89621 l -6.2183,-6.88285 h -17.1094 -17.1095 l -6.2182,6.88285 c -5.6531,6.25731 -9.9353,16.12573 -9.9353,22.89621 0,11.13026 9.9671,26.42942 20.0926,30.84136 7.7135,3.36101 19.3448,2.937 27.0335,-0.98548 z"
       id="path7040"
       inkscape:connector-curvature="0"
       transform="matrix(0.26458333,0,0,0.26458333,0,204.39582)" />
    <path
       style="fill:#ffcc00;stroke:#000000;stroke-width:1.75170958"
       d="M 1444.7267,111.46821 V 6.3656333 h 21.8964 21.8963 V 111.46821 216.57079 h -21.8963 -21.8964 z"
       id="path7042"
       inkscape:connector-curvature="0"
       transform="matrix(0.26458333,0,0,0.26458333,0,204.39582)" />
    <path
       style="fill:#ffcc00;stroke:#000000;stroke-width:1.75170958"
       d="M 1446.4784,111.46821 V 8.1173429 h 20.1447 20.1446 V 111.46821 214.81908 h -20.1446 -20.1447 z"
       id="path7044"
       inkscape:connector-curvature="0"
       transform="matrix(0.26458333,0,0,0.26458333,0,204.39582)" />
    <path
       style="fill:#ffcc00;stroke:#000000;stroke-width:1.75170958"
       d="M 1448.2301,111.46821 V 9.8690525 h 18.393 18.3929 V 111.46821 213.06737 h -18.3929 -18.393 z"
       id="path7046"
       inkscape:connector-curvature="0"
       transform="matrix(0.26458333,0,0,0.26458333,0,204.39582)" />
  </g>
</svg>
