<?xml version="1.0" encoding="UTF-8" standalone="no"?>
<!-- Created with Inkscape (http://www.inkscape.org/) -->

<svg
   xmlns:osb="http://www.openswatchbook.org/uri/2009/osb"
   xmlns:dc="http://purl.org/dc/elements/1.1/"
   xmlns:cc="http://creativecommons.org/ns#"
   xmlns:rdf="http://www.w3.org/1999/02/22-rdf-syntax-ns#"
   xmlns:svg="http://www.w3.org/2000/svg"
   xmlns="http://www.w3.org/2000/svg"
   xmlns:sodipodi="http://sodipodi.sourceforge.net/DTD/sodipodi-0.dtd"
   xmlns:inkscape="http://www.inkscape.org/namespaces/inkscape"
   width="650"
   height="200"
   viewBox="0 0 171.97916 52.916673"
   version="1.1"
   id="svg8"
   inkscape:version="0.92.4 (5da689c313, 2019-01-14)"
   sodipodi:docname="logo5.svg"
   inkscape:export-filename="C:\Users\Iron\Desktop\JPEGapp\rysunek.png"
   inkscape:export-xdpi="96"
   inkscape:export-ydpi="96">
  <defs
     id="defs2">
    <linearGradient
       id="linearGradient8799"
       osb:paint="solid">
      <stop
         style="stop-color:#21a467;stop-opacity:1;"
         offset="0"
         id="stop8797" />
    </linearGradient>
  </defs>
  <sodipodi:namedview
     id="base"
     pagecolor="#ffffff"
     bordercolor="#666666"
     borderopacity="1.0"
     inkscape:pageopacity="0.0"
     inkscape:pageshadow="2"
     inkscape:zoom="0.5"
     inkscape:cx="-210.42239"
     inkscape:cy="105.51884"
     inkscape:document-units="mm"
     inkscape:current-layer="layer1"
     showgrid="false"
     units="px"
     inkscape:window-width="1366"
     inkscape:window-height="705"
     inkscape:window-x="-8"
     inkscape:window-y="-8"
     inkscape:window-maximized="1"
     showguides="true"
     inkscape:guide-bbox="true">
    <sodipodi:guide
       position="-114.56458,12.700002"
       orientation="1,0"
       id="guide9210"
       inkscape:locked="false" />
  </sodipodi:namedview>
  <metadata
     id="metadata5">
    <rdf:RDF>
      <cc:Work
         rdf:about="">
        <dc:format>image/svg+xml</dc:format>
        <dc:type
           rdf:resource="http://purl.org/dc/dcmitype/StillImage" />
        <dc:title></dc:title>
      </cc:Work>
    </rdf:RDF>
  </metadata>
  <g
     inkscape:label="Layer 1"
     inkscape:groupmode="layer"
     id="layer1"
     transform="translate(0,-244.08323)"
     style="display:inline">
    <rect
       style="opacity:1;fill:#000000;fill-opacity:1;stroke:none;stroke-width:2.28580332;stroke-miterlimit:4;stroke-dasharray:none;stroke-dashoffset:13.48838234;stroke-opacity:1"
       id="rect8819"
       width="171.97784"
       height="52.917206"
       x="0.055169523"
       y="244.13072"
       ry="0" />
    <flowRoot
       xml:space="preserve"
       id="flowRoot6476"
       style="font-style:normal;font-variant:normal;font-weight:normal;font-stretch:normal;font-size:256px;line-height:1.25;font-family:'league spartan';-inkscape-font-specification:'league spartan';letter-spacing:0px;word-spacing:0px;fill:#000000;fill-opacity:1;stroke:none"
       transform="matrix(0.26458333,0,0,0.26458333,-8.8059902,365.68449)"><flowRegion
         id="flowRegion6478"
         style="font-size:256px"><rect
           id="rect6480"
           width="1513.4771"
           height="304.79745"
           x="0"
           y="-0.34190026"
           style="font-size:256px" /></flowRegion><flowPara
         id="flowPara6482" /></flowRoot>    <flowRoot
       xml:space="preserve"
       id="flowRoot6484"
       style="font-style:normal;font-variant:normal;font-weight:normal;font-stretch:normal;font-size:40px;line-height:1.25;font-family:'league spartan';-inkscape-font-specification:'league spartan';letter-spacing:0px;word-spacing:0px;fill:#000000;fill-opacity:1;stroke:none"
       transform="matrix(0.26458333,0,0,0.26458333,-8.8059902,365.68449)"><flowRegion
         id="flowRegion6486"><rect
           id="rect6488"
           width="353.84534"
           height="173.41928"
           x="0"
           y="-173.76117" /></flowRegion><flowPara
         id="flowPara6490" /></flowRoot>    <path
       style="fill:#00ff00;stroke:#ffcc00;stroke-width:0.46347314"
       d=""
       id="path6582"
       inkscape:connector-curvature="0" />
    <flowRoot
       xml:space="preserve"
       id="flowRoot6898"
       style="font-style:normal;font-variant:normal;font-weight:normal;font-stretch:normal;font-size:64px;line-height:1.25;font-family:'league spartan';-inkscape-font-specification:'league spartan';letter-spacing:0px;word-spacing:0px;fill:#000000;fill-opacity:1;stroke:none"
       transform="matrix(0.26458333,0,0,0.26458333,0,204.39582)"><flowRegion
         id="flowRegion6900"><rect
           id="rect6902"
           width="28.027353"
           height="378.36926"
           x="606.09155"
           y="568.96368" /></flowRegion><flowPara
         id="flowPara6904" /></flowRoot>    <g
       id="g7334" />
    <flowRoot
       xml:space="preserve"
       id="flowRoot8834"
       style="font-style:normal;font-variant:normal;font-weight:normal;font-stretch:normal;font-size:64px;line-height:1.25;font-family:'league spartan';-inkscape-font-specification:'league spartan';letter-spacing:0px;word-spacing:0px;fill:#000000;fill-opacity:1;stroke:none"
       transform="matrix(0.26458333,0,0,0.26458333,0,204.39582)"><flowRegion
         id="flowRegion8836"><rect
           id="rect8838"
           width="950.37817"
           height="111.13359"
           x="181.74406"
           y="216.57079" /></flowRegion><flowPara
         id="flowPara8840" /></flowRoot>    <text
       xml:space="preserve"
       style="font-style:normal;font-variant:normal;font-weight:normal;font-stretch:normal;font-size:16.93333244px;line-height:1.25;font-family:'league spartan';-inkscape-font-specification:'league spartan';letter-spacing:0px;word-spacing:0px;fill:#000000;fill-opacity:1;stroke:none;stroke-width:0.26458332"
       x="72.09951"
       y="291.10092"
       id="text8844"><tspan
         sodipodi:role="line"
         id="tspan8842"
         x="72.09951"
         y="305.9176"
         style="stroke-width:0.26458332" /></text>
    <flowRoot
       xml:space="preserve"
       id="flowRoot8846"
       style="font-style:normal;font-variant:normal;font-weight:normal;font-stretch:normal;font-size:64px;line-height:1.25;font-family:'league spartan';-inkscape-font-specification:'league spartan';letter-spacing:0px;word-spacing:0px;fill:#000000;fill-opacity:1;stroke:none"
       transform="matrix(0.26458333,0,0,0.26458333,0,204.39582)"><flowRegion
         id="flowRegion8848"><rect
           id="rect8850"
           width="1458.7919"
           height="161.36847"
           x="29.727497"
           y="55.202312" /></flowRegion><flowPara
         id="flowPara8852" /></flowRoot>    <flowRoot
       xml:space="preserve"
       id="flowRoot8854"
       style="font-style:normal;font-variant:normal;font-weight:normal;font-stretch:normal;font-size:64px;line-height:1.25;font-family:'league spartan';-inkscape-font-specification:'league spartan';letter-spacing:0px;word-spacing:0px;fill:#000000;fill-opacity:1;stroke:none"
       transform="matrix(0.26458333,0,0,0.26458333,0,204.39582)"><flowRegion
         id="flowRegion8856"><rect
           id="rect8858"
           width="1565.2391"
           height="296.56583"
           x="5.3636212"
           y="6.3656425" /></flowRegion><flowPara
         id="flowPara8860" /></flowRoot>    <flowRoot
       xml:space="preserve"
       id="flowRoot8956"
       style="fill:black;fill-opacity:1;stroke:none;font-family:'league spartan';font-style:normal;font-weight:normal;font-size:64px;line-height:1.25;letter-spacing:0px;word-spacing:0px;-inkscape-font-specification:'league spartan';font-stretch:normal;font-variant:normal"><flowRegion
         id="flowRegion8958"><rect
           id="rect8960"
           width="579"
           height="104"
           x="22"
           y="-179" /></flowRegion><flowPara
         id="flowPara8962" /></flowRoot>    <flowRoot
       xml:space="preserve"
       id="flowRoot8964"
       style="fill:black;fill-opacity:1;stroke:none;font-family:'league spartan';font-style:normal;font-weight:normal;font-size:64px;line-height:1.25;letter-spacing:0px;word-spacing:0px;-inkscape-font-specification:'league spartan';font-stretch:normal;font-variant:normal"><flowRegion
         id="flowRegion8966"><rect
           id="rect8968"
           width="694"
           height="129"
           x="-69"
           y="-171" /></flowRegion><flowPara
         id="flowPara8970" /></flowRoot>    <flowRoot
       xml:space="preserve"
       id="flowRoot9162"
       style="fill:black;fill-opacity:1;stroke:none;font-family:'league spartan';font-style:normal;font-weight:normal;font-size:64px;line-height:1.25;letter-spacing:0px;word-spacing:0px;-inkscape-font-specification:'league spartan';font-stretch:normal;font-variant:normal"><flowRegion
         id="flowRegion9164"><rect
           id="rect9166"
           width="348"
           height="109"
           x="-459"
           y="-105" /></flowRegion><flowPara
         id="flowPara9168" /></flowRoot>    <g
       aria-label="on"
       transform="matrix(0.45144309,0,0,0.5316142,189.64369,192.85584)"
       style="font-style:normal;font-variant:normal;font-weight:normal;font-stretch:normal;font-size:64px;line-height:1.25;font-family:'league spartan';-inkscape-font-specification:'league spartan';letter-spacing:0px;word-spacing:0px;fill:#000000;fill-opacity:1;stroke:none"
       id="flowRoot9170" />
    <g
       aria-label="off"
       transform="scale(0.92151664,1.0851676)"
       style="font-style:normal;font-variant:normal;font-weight:normal;font-stretch:normal;font-size:31.35304642px;line-height:1.25;font-family:'league spartan';-inkscape-font-specification:'league spartan';letter-spacing:0px;word-spacing:0px;fill:#000000;fill-opacity:1;stroke:none;stroke-width:0.48989135"
       id="text9180" />
    <g
       aria-label="taxi.pl"
       transform="matrix(0.45144309,0,0,0.5316142,246.14571,234.32274)"
       style="font-style:normal;font-variant:normal;font-weight:normal;font-stretch:normal;font-size:64px;line-height:1.25;font-family:'league spartan';-inkscape-font-specification:'league spartan';letter-spacing:0px;word-spacing:0px;fill:#000000;fill-opacity:1;stroke:none"
       id="flowRoot9186">
      <path
         id="path93"
         style="fill:#ffcc00"
         d="m -175.91,93 h 11.328 V 37.96 h -11.328 z m -5.35,-16.448 c 0,-9.6 -6.72,-17.344 -16.32,-17.344 -4.48,0 -8.32,1.984 -10.752,4.672 h -0.128 v -3.712 h -11.2 v 49.472 h 11.328 V 89.864 c 2.688,2.624 6.336,4.096 10.752,4.096 9.6,0 16.32,-7.808 16.32,-17.408 z m -12.032,0 c 0,4.544 -3.392,7.744 -7.68,7.744 -4.224,0 -7.616,-3.2 -7.616,-7.744 0,-4.48 3.2,-7.68 7.616,-7.68 4.608,0 7.68,3.2 7.68,7.68 z m -41.447,2.752 c -4.032,0 -7.296,3.264 -7.296,7.36 0,4.032 3.264,7.296 7.296,7.296 4.096,0 7.36,-3.264 7.36,-7.296 0,-4.096 -3.264,-7.36 -7.36,-7.36 z M -255.586,39.88 c -3.712,0 -6.72,3.008 -6.72,6.72 0,3.712 3.008,6.72 6.72,6.72 3.712,0 6.72,-3.008 6.72,-6.72 0,-3.712 -3.008,-6.72 -6.72,-6.72 z m -5.824,20.288 h 11.328 V 93 h -11.328 z m -3.859,32.832 -14.016,-17.152 12.032,-15.68 h -13.248 l -5.696,7.616 -5.696,-7.616 h -13.248 l 12.032,15.68 L -307.125,93 h 13.696 l 7.232,-9.28 7.232,9.28 z m -84.134,-16.384 c 0,9.6 6.72,17.344 16.32,17.344 4.48,0 8.32,-1.984 10.752,-4.672 h 0.128 V 93 h 11.2 V 60.168 h -11.328 v 3.136 c -2.688,-2.624 -6.336,-4.096 -10.752,-4.096 -9.6,0 -16.32,7.808 -16.32,17.408 z m 12.032,0 c 0,-4.544 3.392,-7.744 7.68,-7.744 4.224,0 7.616,3.2 7.616,7.744 0,4.48 -3.2,7.68 -7.616,7.68 -4.608,0 -7.68,-3.2 -7.68,-7.68 z M -370.24,60.168 h -4.736 v 8.64 h 4.736 v 12.608 c 0,5.824 2.176,12.544 11.2,12.544 4.672,0 8.32,-2.048 8.32,-2.048 l -2.816,-9.152 c 0,0 -1.344,1.024 -2.816,1.024 -1.792,0 -2.56,-1.472 -2.56,-4.544 V 68.808 H -352 v -8.64 h -6.912 V 47.944 h -11.328 z m -23.82843,-0.0016 h -4.736 v 8.639997 h 4.736 v 24.191998 h 11.328 V 68.806353 h 7.552 v -8.639997 h -7.552 v -6.656007 c 0,-4.543987 0.64,-6.463985 3.52,-6.463985 1.856,0 3.392,0.895995 3.392,0.895995 l 3.968,-7.999999 c 0,0 -3.584,-2.943999 -9.344,-2.943999 -8.192,0 -12.8,6.591992 -12.864,16.191999 z m -23.62499,0 h -4.736 v 8.639997 h 4.736 v 24.191998 h 11.32799 V 68.806353 h 7.552 v -8.639997 h -7.552 v -6.656007 c 0,-4.543987 0.64001,-6.463985 3.52,-6.463985 1.856,0 3.392,0.895995 3.392,0.895995 l 3.968,-7.999999 c 0,0 -3.584,-2.943999 -9.344,-2.943999 -8.192,0 -12.79999,6.591992 -12.86399,16.191999 z m -46.163,16.447994 c 0,10.112018 7.936,17.34401 19.776,17.34401 11.328,0 19.584,-7.231992 19.584,-17.34401 0,-10.239985 -8.704,-17.407983 -19.584,-17.407983 -11.072,0 -19.776,7.167998 -19.776,17.407983 z m 12.032,0 c 0,-4.543987 3.392,-7.743982 7.68,-7.743982 4.224,0 7.616,3.199995 7.616,7.743982 0,4.480014 -3.2,7.68001 -7.616,7.68001 -4.608,0 -7.68,-3.199996 -7.68,-7.68001 z m -48.36926,16.383783 h 11.328 v -18.56 c 0,-3.264 3.328,-6.4 6.72,-6.4 3.648,0 5.888,3.136 5.888,6.4 v 18.56 h 11.328 v -21.632 c 0,-9.152 -8.384,-12.16 -14.4,-12.16 -3.584,0 -6.848,1.856 -9.408,4.416 h -0.128 v -3.456 h -11.328 z m -44.493,-16.384 c 0,10.112 7.936,17.344 19.776,17.344 11.328,0 19.584,-7.232 19.584,-17.344 0,-10.24 -8.704,-17.408 -19.584,-17.408 -11.072,0 -19.776,7.168 -19.776,17.408 z m 12.032,0 c 0,-4.544 3.392,-7.744 7.68,-7.744 4.224,0 7.616,3.2 7.616,7.744 0,4.48 -3.2,7.68 -7.616,7.68 -4.608,0 -7.68,-3.2 -7.68,-7.68 z" />
    </g>
    <flowRoot
       xml:space="preserve"
       id="flowRoot9194"
       style="fill:black;fill-opacity:1;stroke:none;font-family:'league spartan';font-style:normal;font-weight:normal;font-size:64px;line-height:1.25;letter-spacing:0px;word-spacing:0px;-inkscape-font-specification:'league spartan';font-stretch:normal;font-variant:normal"><flowRegion
         id="flowRegion9196"><rect
           id="rect9198"
           width="162"
           height="65"
           x="-283"
           y="208" /></flowRegion><flowPara
         id="flowPara9200" /></flowRoot>    <flowRoot
       xml:space="preserve"
       id="flowRoot9202"
       style="fill:black;fill-opacity:1;stroke:none;font-family:'league spartan';font-style:normal;font-weight:normal;font-size:64px;line-height:1.25;letter-spacing:0px;word-spacing:0px;-inkscape-font-specification:'league spartan';font-stretch:normal;font-variant:normal"><flowRegion
         id="flowRegion9204"><rect
           id="rect9206"
           width="276"
           height="80"
           x="-417"
           y="35" /></flowRegion><flowPara
         id="flowPara9208" /></flowRoot>  </g>
</svg>
